<svg width="50" height="50" viewBox="0 0 50 50" fill="none" xmlns="http://www.w3.org/2000/svg">
<g clip-path="url(#clip0_24_516)">
<path d="M47.5941 14.285C47.4206 13.9196 46.9834 13.7641 46.6183 13.9378C46.2529 14.1113 46.0974 14.5482 46.271 14.9136C47.7737 18.0768 48.5356 21.4704 48.5356 25C48.5356 31.2865 46.0876 37.1967 41.6423 41.6419C37.1972 46.0871 31.287 48.5351 25.0004 48.5351C21.2722 48.5351 17.7068 47.689 14.4035 46.0204C11.651 44.63 9.16439 42.6779 7.14524 40.3322L10.035 41.2955C10.4187 41.4234 10.8335 41.216 10.9615 40.8322C11.0894 40.4484 10.882 40.0337 10.4982 39.9057L5.29798 38.1723C5.05716 38.0922 4.79192 38.1422 4.5971 38.3049C4.40227 38.4676 4.3055 38.7195 4.34134 38.9708L5.20804 45.0377C5.26028 45.403 5.57356 45.6666 5.93226 45.6666C5.96673 45.6666 6.00159 45.6641 6.03675 45.6592C6.43724 45.6019 6.71546 45.2309 6.65823 44.8305L6.17464 41.4455C8.29368 43.8654 10.8824 45.8828 13.7431 47.3279C17.2531 49.101 21.0406 50 25.0004 50C31.6782 50 37.9563 47.3995 42.6782 42.6777C47.4 37.9557 50.0004 31.6777 50.0004 25C50.0004 21.2512 49.1909 17.6463 47.5941 14.285Z" fill="black"/>
<path d="M45.6592 11.0293L44.7925 4.9624C44.7353 4.56191 44.3634 4.28389 43.9639 4.34092C43.5634 4.39814 43.2852 4.76914 43.3424 5.16953L43.8255 8.55117C39.0691 3.10156 32.2791 0 25 0C18.3223 0 12.0442 2.60049 7.32227 7.32227C2.60049 12.0442 0 18.3223 0 25C0 28.7488 0.809668 32.3539 2.40635 35.7149C2.53174 35.9789 2.79443 36.1333 3.06846 36.1333C3.17373 36.1333 3.28076 36.1105 3.38223 36.0622C3.74756 35.8887 3.90303 35.4518 3.72949 35.0863C2.22676 31.9233 1.46484 28.5298 1.46484 25C1.46484 18.7135 3.91289 12.8033 8.35811 8.35811C12.8033 3.91289 18.7135 1.46484 25 1.46484C31.9195 1.46484 38.3694 4.44277 42.8531 9.66709L39.9655 8.70459C39.5815 8.57646 39.1669 8.78408 39.0391 9.16787C38.9112 9.55166 39.1185 9.96641 39.5022 10.0943L44.7024 11.8277C44.7782 11.8529 44.8563 11.8653 44.934 11.8653C45.1031 11.8653 45.2697 11.8067 45.4034 11.6952C45.5982 11.5325 45.695 11.2806 45.6592 11.0293Z" fill="black"/>
<path d="M22.9637 32.8789H15.5961C15.8903 30.3154 17.7119 28.5955 19.6309 26.7836C21.6295 24.8965 23.6961 22.9451 23.6961 20.0148C23.6961 17.6118 21.5414 15.6567 18.893 15.6567C16.2445 15.6567 14.0898 17.6118 14.0898 20.0148C14.0898 20.4193 14.4178 20.7473 14.8223 20.7473C15.2268 20.7473 15.5547 20.4193 15.5547 20.0148C15.5547 18.4195 17.0521 17.1216 18.893 17.1216C20.7338 17.1216 22.2313 18.4195 22.2313 20.0148C22.2313 22.3137 20.4796 23.9676 18.6252 25.7186C16.4993 27.7258 14.0898 30.0009 14.0898 33.6113C14.0898 34.0158 14.4178 34.3438 14.8223 34.3438H22.9637C23.3682 34.3438 23.6961 34.0158 23.6961 33.6113C23.6961 33.2068 23.3682 32.8789 22.9637 32.8789Z" fill="black"/>
<path d="M35.177 28.1818H34.3438V16.3892C34.3438 15.9847 34.016 15.6567 33.6114 15.6567C33.2068 15.6567 32.879 15.9847 32.879 16.3892V28.1819H26.6657L28.8514 16.5242C28.926 16.1267 28.6641 15.7438 28.2666 15.6693C27.8694 15.5952 27.4864 15.8566 27.4118 16.2542L25.0633 28.7794C25.0232 28.9936 25.0804 29.2145 25.2196 29.3821C25.3587 29.5498 25.5653 29.6468 25.7832 29.6468H32.879V33.6113C32.879 34.0157 33.2068 34.3437 33.6114 34.3437C34.016 34.3437 34.3438 34.0157 34.3438 33.6112V29.6467H35.177C35.5816 29.6467 35.9094 29.3187 35.9094 28.9143C35.9094 28.5098 35.5816 28.1818 35.177 28.1818Z" fill="black"/>
<path d="M25 3.91406C24.5955 3.91406 24.2676 4.24199 24.2676 4.64648V7.77773C24.2676 8.18223 24.5955 8.51016 25 8.51016C25.4046 8.51016 25.7324 8.18223 25.7324 7.77773V4.64648C25.7324 4.24199 25.4046 3.91406 25 3.91406Z" fill="black"/>
<path d="M25 41.4897C24.5955 41.4897 24.2676 41.8177 24.2676 42.2222V45.3534C24.2676 45.7579 24.5955 46.0858 25 46.0858C25.4046 46.0858 25.7324 45.7579 25.7324 45.3534V42.2222C25.7324 41.8177 25.4046 41.4897 25 41.4897Z" fill="black"/>
<path d="M45.3539 24.2676H42.2227C41.8181 24.2676 41.4902 24.5955 41.4902 25C41.4902 25.4045 41.8181 25.7324 42.2227 25.7324H45.3539C45.7585 25.7324 46.0863 25.4045 46.0863 25C46.0863 24.5955 45.7585 24.2676 45.3539 24.2676Z" fill="black"/>
<path d="M7.77773 24.2676H4.64648C4.24199 24.2676 3.91406 24.5955 3.91406 25C3.91406 25.4045 4.24199 25.7324 4.64648 25.7324H7.77773C8.18223 25.7324 8.51016 25.4045 8.51016 25C8.51016 24.5955 8.18223 24.2676 7.77773 24.2676Z" fill="black"/>
</g>
<defs>
<clipPath id="clip0_24_516">
<rect width="50" height="50" fill="white"/>
</clipPath>
</defs>
</svg>
