<svg width="46" height="46" viewBox="0 0 46 46" fill="none" xmlns="http://www.w3.org/2000/svg">
<g clip-path="url(#clip0_24_484)">
<path d="M44.1779 10.1498L23.2921 0.0669785C23.1069 -0.0223262 22.8913 -0.0223262 22.7062 0.0669785L1.8203 10.1498C1.58743 10.2622 1.43945 10.498 1.43945 10.7566V35.2434C1.43945 35.502 1.58743 35.7378 1.8203 35.8502L22.7061 45.933C22.7986 45.9777 22.8989 46 22.9991 46C23.0993 46 23.1994 45.9777 23.2921 45.933L44.1779 35.8502C44.4107 35.7378 44.5587 35.502 44.5587 35.2434V10.7567C44.5587 10.4979 44.4106 10.2623 44.1779 10.1498ZM22.9991 1.42209L42.335 10.7566L36.7299 13.4625C36.6944 13.4355 36.6569 13.4105 36.6158 13.3906L17.4112 4.11965L22.9991 1.42209ZM15.8895 4.88153L35.1973 14.2025L31.2428 16.1115L11.943 6.79439L15.8895 4.88153ZM35.649 15.4808V22.5376L31.9552 24.3208V17.264L35.649 15.4808ZM43.211 34.8206L23.6729 44.2526V21.2623L28.3334 19.0124C28.6685 18.8506 28.809 18.4478 28.6472 18.1126C28.4854 17.7776 28.0826 17.6369 27.7474 17.7988L22.9991 20.0912L21.1307 19.1891C20.7955 19.0272 20.3927 19.1679 20.2309 19.503C20.0691 19.8381 20.2096 20.2409 20.5447 20.4028L22.3253 21.2623V44.2526L2.78711 34.8204V11.8301L17.6652 19.0127C17.7597 19.0583 17.8595 19.0799 17.9577 19.0799C18.2082 19.0799 18.4488 18.9396 18.5649 18.6989C18.7267 18.3637 18.5862 17.9609 18.2511 17.7991L3.66318 10.7566L10.357 7.52509L30.5982 17.2968C30.6012 17.3009 30.6045 17.3046 30.6076 17.3086V25.3945C30.6076 25.6264 30.7268 25.8419 30.9232 25.9652C31.0323 26.0337 31.1567 26.0683 31.2815 26.0683C31.3814 26.0683 31.4816 26.0461 31.5744 26.0013L36.6158 23.5675C36.8487 23.4551 36.9966 23.2194 36.9966 22.9607V14.8303L43.211 11.8302V34.8206Z" fill="black"/>
<path d="M8.34839 32.207L5.28337 30.7274C4.94807 30.5654 4.54539 30.7061 4.38359 31.0412C4.22178 31.3764 4.36229 31.7792 4.69741 31.941L7.76243 33.4206C7.85686 33.4663 7.95667 33.4879 8.05487 33.4879C8.30536 33.4879 8.54596 33.3475 8.66213 33.1068C8.82403 32.7716 8.68351 32.3689 8.34839 32.207Z" fill="black"/>
<path d="M11.1688 30.371L5.28722 27.5315C4.95201 27.3697 4.54924 27.5102 4.38744 27.8454C4.22572 28.1806 4.36623 28.5834 4.70135 28.7452L10.583 31.5847C10.6774 31.6302 10.7772 31.6519 10.8754 31.6519C11.1259 31.6519 11.3665 31.5115 11.4827 31.2708C11.6445 30.9355 11.504 30.5327 11.1688 30.371Z" fill="black"/>
</g>
<defs>
<clipPath id="clip0_24_484">
<rect width="46" height="46" fill="white"/>
</clipPath>
</defs>
</svg>
